<svg width="592" height="144" viewBox="0 0 592 144" fill="none" xmlns="http://www.w3.org/2000/svg">
<g clip-path="url(#clip0_8474_4045)">
<path d="M14.0205 103.6C21.8192 110.079 32.6641 113.506 45.3811 113.506C58.0982 113.506 67.8341 110.375 75.2044 104.45C82.6539 98.4638 86.5893 89.9863 86.5893 79.9382C86.5893 72.4923 84.0149 66.2278 78.9345 61.3198C73.7282 56.2868 65.9834 52.7673 55.9199 50.8576L39.7139 47.7807C26.4171 45.4249 19.947 40.2349 19.947 31.9108C19.947 21.0775 29.3948 14.0741 44.0129 14.0741C51.6281 14.0741 57.785 15.7375 62.3181 19.0179C66.8367 22.2875 69.7496 27.1634 70.9738 33.51L71.2798 35.0984H85.8692L85.6135 32.8889C83.8385 22.5981 79.3234 14.5774 72.1943 9.0733C64.9573 3.47992 55.2142 0.645752 43.246 0.645752C31.2779 0.645752 22.0353 3.69052 15.0646 9.45523C8.14441 15.1807 4.48627 23.1585 4.48627 32.5212C4.48627 47.7629 15.3203 58.1465 34.9972 61.7553L53.5076 65.2926C68.4498 68.0019 71.5894 75.4192 71.5894 81.1661C71.5894 86.913 69.1447 91.514 64.5252 94.8122C59.9777 98.0569 53.5184 99.7702 45.8456 99.7702C36.9703 99.7702 29.8304 97.7035 24.6241 93.6236C19.4393 89.5615 16.1664 83.5113 14.899 75.6405L14.6326 73.9914H0L0.237635 76.1617C1.49422 87.6661 6.26133 97.1538 14.0205 103.6Z" fill="white"/>
<path d="M14.0205 103.6C21.8192 110.079 32.6641 113.506 45.3811 113.506C58.0982 113.506 67.8341 110.375 75.2044 104.45C82.6539 98.4638 86.5893 89.9863 86.5893 79.9382C86.5893 72.4923 84.0149 66.2278 78.9345 61.3198C73.7282 56.2868 65.9834 52.7673 55.9199 50.8576L39.7139 47.7807C26.4171 45.4249 19.947 40.2349 19.947 31.9108C19.947 21.0775 29.3948 14.0741 44.0129 14.0741C51.6281 14.0741 57.785 15.7375 62.3181 19.0179C66.8367 22.2875 69.7496 27.1634 70.9738 33.51L71.2798 35.0984H85.8692L85.6135 32.8889C83.8385 22.5981 79.3234 14.5774 72.1943 9.0733C64.9573 3.47992 55.2142 0.645752 43.246 0.645752C31.2779 0.645752 22.0353 3.69052 15.0646 9.45523C8.14441 15.1807 4.48627 23.1585 4.48627 32.5212C4.48627 47.7629 15.3203 58.1465 34.9972 61.7553L53.5076 65.2926C68.4498 68.0019 71.5894 75.4192 71.5894 81.1661C71.5894 86.913 69.1447 91.514 64.5252 94.8122C59.9777 98.0569 53.5184 99.7702 45.8456 99.7702C36.9703 99.7702 29.8304 97.7035 24.6241 93.6236C19.4393 89.5615 16.1664 83.5113 14.899 75.6405L14.6326 73.9914H0L0.237635 76.1617C1.49422 87.6661 6.26133 97.1538 14.0205 103.6Z" fill="white"/>
<path d="M227.507 36.4119H212.979V111.203H227.507V36.4119Z" fill="white"/>
<path d="M427.088 102.159C434.541 109.155 444.821 113.007 456.029 113.007C467.238 113.007 477.431 109.155 484.862 102.159C492.398 95.0667 496.546 85.1613 496.546 74.2602V3.88428H480.916V73.2607C480.916 80.5389 478.446 86.8069 473.776 91.383C469.268 95.7984 462.968 98.2292 456.029 98.2292C449.091 98.2292 442.704 95.7984 438.174 91.383C433.483 86.8104 431.002 80.5424 431.002 73.2607V3.88428H415.372V74.2602C415.372 85.1649 419.534 95.0702 427.088 102.159Z" fill="white"/>
<path d="M310.291 45.6785C303.018 38.3718 294.28 34.6631 284.328 34.6631C273.162 34.6631 264.071 38.2147 257.306 45.218L256.438 46.1175V36.3979H241.812V143.996H256.438V101.248L257.306 102.148C264.071 109.151 273.162 112.703 284.328 112.703C294.384 112.703 303.144 109.023 310.367 101.766C317.589 94.5054 321.251 85.057 321.251 73.6847C321.251 62.3123 317.564 52.9924 310.291 45.6785ZM281.836 99.8668C267.387 99.8668 256.492 88.5944 256.492 73.649C256.492 58.7035 267.625 47.4311 281.836 47.4311C296.047 47.4311 307.569 58.9463 307.569 73.649C307.569 88.3517 296.505 99.8668 281.836 99.8668Z" fill="white"/>
<path d="M551.264 112.707C561.32 112.707 570.081 109.026 577.303 101.77C584.526 94.5093 588.188 85.0609 588.188 73.6886C588.188 62.3162 584.501 52.9963 577.228 45.6824C569.955 38.3757 561.216 34.667 551.264 34.667C540.099 34.667 531.008 38.2186 524.242 45.2219L523.374 46.1215V36.4018H508.749V144H523.374V101.252L524.242 102.152C531.008 109.155 540.099 112.707 551.264 112.707ZM548.773 47.4279C563.204 47.4279 574.506 58.943 574.506 73.6457C574.506 88.3484 563.441 99.8636 548.773 99.8636C534.104 99.8636 523.428 88.5911 523.428 73.6457C523.428 58.7003 534.561 47.4279 548.773 47.4279Z" fill="white"/>
<path d="M220.165 0.942139C215.01 0.942139 210.97 5.13628 210.97 10.4869C210.97 15.8376 214.923 20.0317 220.165 20.0317C225.408 20.0317 229.516 15.9268 229.516 10.4869C229.516 5.04704 225.408 0.942139 220.165 0.942139Z" fill="white"/>
<path d="M402.459 89.6875H387.164L386.793 90.4549C383.844 96.5766 376.758 100.232 367.836 100.232C355.324 100.232 345.988 92.6751 343.471 80.5104L343.349 79.9107L403.953 79.8928C404.007 79.4431 404.086 78.7042 404.147 77.9867C404.252 76.766 404.32 74.9991 404.32 73.4856C404.155 50.9408 388.68 34.5747 367.526 34.5747C345.228 34.5747 328.41 51.4441 328.41 73.8104C328.41 96.1768 345.225 113.2 367.526 113.2C383.938 113.2 397.422 104.861 401.886 91.9505L402.459 89.6875ZM343.493 67.2569C345.556 57.7228 352.872 47.5391 367.22 47.5391C379.03 47.5391 387.308 54.9207 389.364 67.2819L389.461 67.8637H343.363L343.493 67.2604V67.2569Z" fill="white"/>
<path d="M581.186 0C575.209 0 570.528 4.82951 570.528 10.994C570.528 17.1585 575.112 21.988 581.186 21.988C587.26 21.988 591.998 17.262 591.998 10.994C591.998 4.72599 587.249 0 581.186 0ZM581.186 20.089C576.203 20.089 572.444 16.1805 572.444 10.994C572.444 5.80754 576.286 1.89896 581.186 1.89896C586.086 1.89896 590.083 5.89321 590.083 10.994C590.083 16.0948 586.259 20.089 581.186 20.089Z" fill="white"/>
<path d="M585.572 12.3143L583.401 11.8467C583.073 12.8141 582.407 13.3067 581.417 13.3067C580.755 13.3067 580.211 13.0889 579.8 12.657C579.393 12.2287 579.188 11.6718 579.188 10.9936C579.188 10.3154 579.393 9.77287 579.8 9.34096C580.211 8.90549 580.755 8.68418 581.417 8.68418C581.91 8.68418 582.339 8.82696 582.692 9.10538C583.001 9.35167 583.224 9.70505 583.358 10.1548L585.568 9.63009C585.324 8.77341 584.834 8.07023 584.11 7.53481C583.336 6.96369 582.432 6.67456 581.417 6.67456C580.16 6.67456 579.087 7.08505 578.22 7.89532C577.356 8.70203 576.92 9.74788 576.92 10.9972C576.92 12.2465 577.359 13.3067 578.22 14.1098C579.087 14.9129 580.16 15.3234 581.417 15.3234C582.454 15.3234 583.369 15.0271 584.143 14.4453C584.863 13.9028 585.345 13.1853 585.572 12.3179V12.3143Z" fill="white"/>
<path d="M190.055 36.4119L171.325 88.4835L154.439 36.4154H141.452L124.565 88.4835L105.835 36.4119H90.1514L118.567 111.2H130.924L147.947 60.4309L164.967 111.2H177.324L205.739 36.4119H190.055Z" fill="white"/>
</g>
<defs>
<clipPath id="clip0_8474_4045">
<rect width="592" height="144" fill="white"/>
</clipPath>
</defs>
</svg>
